# AST/ASF file generated using VICON BodyLanguage
# -----------------------------------------------
:version 1.10
:name VICON
:units
  mass 1.0
  length 0.45
  angle deg
:documentation
   .ast/.asf automatically generated from VICON data using
   VICON BodyBuilder and BodyLanguage model FoxedUp or BRILLIANT.MOD
:root
   order TX TY TZ RX RY RZ
   axis XYZ
   position 0 0 0  
   orientation 0 0 0 
:bonedata
  begin
     id 1 
     name lhipjoint
     direction 0.643824 -0.71708 0.266994 
     length 2.52133 
     axis 0 0 0  XYZ
  end
  begin
     id 2 
     name lfemur
     direction 0.34202 -0.939693 0  
     length 7.51824  
     axis 0 0 20  XYZ
    dof rx ry rz
    limits (-160.0 20.0)
           (-70.0 70.0)
           (-60.0 70.0)
  end
  begin
     id 3 
     name ltibia
     direction 0.34202 -0.939693 0   
     length 7.3685   
     axis 0 0 20   XYZ
    dof rx
    limits (-10.0 170.0)
  end
  begin
     id 4 
     name lfoot
     direction 0.105419 -0.289636 0.951314   
     length 2.20972   
     axis -90 7.62852e-016 20   XYZ
    dof rx rz
    limits (-45.0 90.0)
           (-70.0 20.0)
  end
  begin
     id 5 
     name ltoes
     direction 1.53549e-011 -4.21833e-011 1   
     length 1.10139   
     axis -90 7.62852e-016 20   XYZ
    dof rx
    limits (-90.0 20.0)
  end
  begin
     id 6 
     name rhipjoint
     direction -0.608823 -0.743445 0.276811   
     length 2.43192  
     axis 0 0 0  XYZ 
  end
  begin
     id 7 
     name rfemur
     direction -0.34202 -0.939693 0   
     length 7.69715   
     axis 0 0 -20   XYZ
    dof rx ry rz
    limits (-160.0 20.0)
           (-70.0 70.0)
           (-70.0 60.0)
  end
  begin
     id 8 
     name rtibia
     direction -0.34202 -0.939693 0   
     length 7.44924   
     axis 0 0 -20   XYZ
    dof rx
    limits (-10.0 170.0)
 end
 begin
     id 9 
     name rfoot
     direction -0.103614 -0.284677 0.953007   
     length 2.22623  
     axis -90 -7.62852e-016 -20   XYZ
    dof rx rz
    limits (-45.0 90.0)
           (-20.0 70.0)
  end
  begin
     id 10 
     name rtoes
     direction -1.53537e-011 -4.22026e-011 1   
     length 1.11   
     axis -90 -7.62852e-016 -20   XYZ
    dof rx
    limits (-90.0 20.0)
  end
  begin
     id 11 
     name lowerback
     direction -0.0101212 0.99662 -0.0815298   
     length 2.08277   
     axis 0 0 0   XYZ
    dof rx ry rz
    limits (-20.0 45.0)
           (-30.0 30.0)
           (-30.0 30.0)
  end
  begin
     id 12 
     name upperback
     direction 0.024314 0.999591 -0.0150645   
     length 2.08524   
     axis 0 0 0   XYZ
    dof rx ry rz
    limits (-20.0 45.0)
           (-30.0 30.0)
           (-30.0 30.0)
  end
  begin
     id 13 
     name thorax
     direction 0.0285959 0.999323 0.0231357   
     length 2.09645   
     axis 0 0 0   XYZ
    dof rx ry rz
    limits (-20.0 45.0)
           (-30.0 30.0)
           (-30.0 30.0)
  end
  begin
     id 14 
     name lowerneck
     direction -0.065512 0.979301 0.191515   
     length 1.63798   
     axis 0 0 0   XYZ
    dof rx ry rz
    limits (-20.0 45.0)
           (-30.0 30.0)
           (-30.0 30.0)
  end
  begin
     id 15 
     name upperneck
     direction 0.0498479 0.98191 -0.182667   
     length 1.68731   
     axis 0 0 0   XYZ
    dof rx ry rz
    limits (-20.0 45.0)
           (-30.0 30.0)
           (-30.0 30.0)
  end
  begin
     id 16
     name head
     direction 0.0230358 0.996257 -0.0833175  
     length 1.69785  
     axis 0 0 0   XYZ
    dof rx ry rz
    limits (-20.0 45.0)
           (-30.0 30.0)
           (-30.0 30.0)
  end
  begin
     id 17 
     name lclavicle
     direction 0.967963 0.201165 -0.150269  
     length 3.63976  
     axis 0 0 0   XYZ
    dof ry rz
    limits (-20.0 10.0)
           (0.0 20.0)
  end
  begin
     id 18 
     name lhumerus
     direction 1 -4.48954e-011 -2.92837e-028   
     length 5.32462   
     axis 180 -30 -90   XYZ
    dof rx ry rz
    limits (-60.0 90.0)
           (-90.0 90.0)
           (-90.0 90.0)
  end
  begin
     id 19
     name lradius
     direction 1 -4.48958e-011 -6.39511e-027   
     length 3.48402   
     axis 180 -30 -90   XYZ
    dof rx
    limits (-10.0 170.0)
  end
  begin
     id 20
     name lwrist
     direction 1 -4.48975e-011 -1.1413e-026   
     length 1.74201   
     axis 6.88575e-015 90 90   XYZ
    dof ry
    limits (-180.0 0.0)
 end
  begin
     id 21 
     name lhand
     direction 1 -4.48899e-011 -2.28192e-026   
     length 0.572476   
     axis 1.45643e-014 90 90   XYZ
    dof rx rz
    limits (-90.0 90.0)
           (-45.0 45.0)
  end
  begin
     id 22 
     name lfingers
     direction 1 -4.49155e-011 -4.5684e-026   
     length 0.461545   
     axis 2.91283e-014 90 90   XYZ
    dof rx
    limits (0.0 90.0)
  end
  begin
     id 23
     name lthumb
     direction 0.707107 -6.34943e-011 0.707107   
     length 0.662688   
     axis -90 45 -2.25915e-014   XYZ
    dof rx rz
    limits (-45.0 45.0)
           (-45.0 45.0)
  end
  begin
     id 24 
     name rclavicle
     direction -0.964103 0.264019 -0.0282629   
     length 3.54491  
     axis 0 0 0   XYZ 
    dof ry rz
    limits (-10.0 20.0)
           (-20.0 0.0)
  end
  begin
     id 25 
     name rhumerus
     direction -1 -4.48964e-011 -2.45032e-027  
     length 5.33589   
     axis 180 30 90   XYZ
    dof rx ry rz
    limits (-90.0 60.0)
           (-90.0 90.0)
           (-90.0 90.0)
  end
  begin
     id 26 
     name rradius
     direction -1 -4.48987e-011 -1.55093e-027   
     length 3.64134   
     axis 180 30 90   XYZ
    dof rx
    limits (-10.0 170.0)
  end
  begin
     id 27 
     name rwrist
     direction -1 -4.4897e-011 -1.14128e-026   
     length 1.82067   
     axis 6.88575e-015 -90 -90   XYZ
    dof ry
    limits (-180.0 0.0)
  end
  begin
     id 28
     name rhand
     direction -1 -4.49021e-011 -2.28301e-026   
     length 0.734811   
     axis 1.45643e-014 -90 -90   XYZ
    dof rx rz
    limits (-90.0 90.0)
           (-45.0 45.0)
  end
  begin
     id 29
     name rfingers
     direction -1 -4.48862e-011 -4.56319e-026   
     length 0.592424   
     axis 2.91283e-014 -90 -90   XYZ
    dof rx
    limits (0.0 90.0)
  end
  begin
     id 30
     name rthumb
     direction -0.707107 -6.34978e-011 0.707107   
     length 0.850605   
     axis -90 -45 2.25915e-014   XYZ
    dof rx rz
    limits (-45.0 45.0)
           (-45.0 45.0)
  end
:hierarchy
  begin
    root lhipjoint rhipjoint lowerback
    lhipjoint lfemur
    lfemur ltibia
    ltibia lfoot
    lfoot ltoes
    rhipjoint rfemur
    rfemur rtibia
    rtibia rfoot
    rfoot rtoes
    lowerback upperback
    upperback thorax
    thorax lowerneck lclavicle rclavicle
    lowerneck upperneck
    upperneck head
    lclavicle lhumerus
    lhumerus lradius
    lradius lwrist
    lwrist lhand lthumb
    lhand lfingers
    rclavicle rhumerus
    rhumerus rradius
    rradius rwrist
    rwrist rhand rthumb
    rhand rfingers
  end

#!OML:ASF F:\VICON\USERDATA\INSTALL\rory3\rory3.ASF
:FULLY-SPECIFIED
:DEGREES
44
root 0.57797 17.801 9.77318 -173.935 -3.01326 -179.297
lowerback -0.726606 0.0705828 -5.64748
upperback -0.577464 0.115608 1.87613
thorax -0.203511 0.0753824 5.11426
lowerneck -18.9496 0.285701 -8.70902
upperneck 36.4164 -0.417446 2.66485
head 16.208 -2.06053 2.31489
rclavicle 3.75827e-015 -6.85807e-015
rhumerus -33.5709 -7.38972 -80.1366
rradius 34.0378
rwrist 21.4817
rhand -18.8036 2.5552
rfingers 7.12502
rthumb 7.49476 -27.292
lclavicle 3.75827e-015 -6.85807e-015
lhumerus -29.6275 12.5581 82.9287
lradius 24.1891
lwrist -12.784
lhand -11.764 25.9326
lfingers 7.12502
lthumb 14.2844 55.4213
rfemur -14.4403 3.41109 18.1806
rtibia 30.1964
rfoot -22.1599 -6.70551
rtoes 9.03637
lfemur -10.1418 -1.74441 -21.3843
ltibia 22.2688
lfoot -15.0394 1.89466
ltoes -8.65671
45
root 0.575377 17.798 9.77237 -173.951 -2.97601 -179.298
lowerback -0.737705 0.071698 -5.60864
upperback -0.575214 0.117702 1.85268
thorax -0.195021 0.0760098 5.0677
lowerneck -18.9132 0.30501 -8.65373
upperneck 36.4291 -0.418203 2.65521
head 16.2051 -2.05782 2.30014
rclavicle -9.74666e-015 2.98177e-016
rhumerus -33.5807 -7.39874 -80.1645
rradius 34.0403
rwrist 21.4913
rhand -18.8209 2.68374
rfingers 7.12502
rthumb 7.478 -27.1641
lclavicle -9.74666e-015 2.98177e-016
lhumerus -29.6691 12.58 82.8998
lradius 24.2155
lwrist -12.7704
lhand -11.8318 25.8876
lfingers 7.12502
lthumb 14.2191 55.3809
rfemur -14.4554 3.3562 18.1696
rtibia 30.2418
rfoot -22.1181 -6.65236
rtoes 9.10151
lfemur -10.0961 -1.69035 -21.406
ltibia 22.2255
lfoot -15.0226 1.9355
ltoes -8.87627
46
root 0.573258 17.797 9.77162 -173.961 -2.94525 -179.249
lowerback -0.739567 0.0751331 -5.53904
upperback -0.565805 0.121996 1.86175
thorax -0.184612 0.0773176 5.03762
lowerneck -18.9009 0.304124 -8.62602
upperneck 36.3935 -0.416221 2.63428
head 16.1839 -2.05267 2.28653
rclavicle -2.98177e-016 -9.74045e-015
rhumerus -33.5568 -7.42999 -80.1459
rradius 34.0224
rwrist 21.5583
rhand -18.7956 2.83125
rfingers 7.12502
rthumb 7.50244 -27.0157
lclavicle -2.98177e-016 -9.74045e-015
lhumerus -29.6805 12.5099 82.9374
lradius 24.2289
lwrist -12.7019
lhand -11.8769 25.9093
lfingers 7.12502
lthumb 14.1756 55.4056
rfemur -14.4583 3.34857 18.213
rtibia 30.2635
rfoot -22.1141 -6.58153
rtoes 9.52258
lfemur -10.0619 -1.66392 -21.3637
ltibia 22.1989
lfoot -15.0402 1.94564
ltoes -8.83601
47
root 0.573108 17.7981 9.77469 -173.953 -2.94546 -179.303
lowerback -0.708339 0.0730013 -5.58942
upperback -0.55978 0.118267 1.84966
thorax -0.195568 0.0759715 5.05357
lowerneck -18.901 0.283417 -8.61924
upperneck 36.3412 -0.437351 2.63484
head 16.1593 -2.05408 2.28212
rclavicle 4.91371e-015 -7.55382e-015
rhumerus -33.5022 -7.49518 -80.1202
rradius 33.9509
rwrist 21.5162
rhand -18.8795 3.03606
rfingers 7.12502
rthumb 7.42148 -26.8138
lclavicle 4.91371e-015 -7.55382e-015
lhumerus -29.6752 12.4449 83.0002
lradius 24.2864
lwrist -12.6279
lhand -11.8048 25.9551
lfingers 7.12502
lthumb 14.2451 55.4465
rfemur -14.4805 3.43103 18.1486
rtibia 30.2871
rfoot -22.1819 -6.59222
rtoes 9.60913
lfemur -10.0679 -1.6598 -21.4163
ltibia 22.1763
lfoot -15.041 1.87982
ltoes -8.7939
48
root 0.571615 17.8004 9.77619 -173.916 -2.93123 -179.409
lowerback -0.745189 0.0526387 -5.69557
upperback -0.551517 0.0943023 1.83084
thorax -0.163501 0.0632187 5.09424
lowerneck -18.9161 0.283115 -8.59912
upperneck 36.3162 -0.429853 2.61717
head 16.1498 -2.04755 2.27254
rclavicle -3.47873e-015 -6.06293e-015
rhumerus -33.4371 -7.41363 -80.1184
rradius 33.8899
rwrist 21.3683
rhand -18.8892 3.15998
rfingers 7.12502
rthumb 7.41213 -26.6902
lclavicle -3.47873e-015 -6.06293e-015
lhumerus -29.6564 12.5861 82.9866
lradius 24.2683
lwrist -12.703
lhand -11.6672 25.9127
lfingers 7.12502
lthumb 14.3777 55.3947
rfemur -14.5224 3.50966 18.0144
rtibia 30.2919
rfoot -22.2141 -6.60609
rtoes 9.70994
lfemur -10.1136 -1.64017 -21.5412
ltibia 22.1741
lfoot -15.0252 1.88599
ltoes -8.71202
49
root 0.570808 17.7997 9.7778 -173.882 -2.88549 -179.467
lowerback -0.764242 0.0376537 -5.76704
upperback -0.564355 0.0755326 1.82724
thorax -0.16379 0.0543492 5.13105
lowerneck -18.8496 0.304286 -8.569
upperneck 36.2291 -0.390704 2.58496
head 16.0866 -2.02525 2.26016
rclavicle 6.4605e-015 8.64713e-015
rhumerus -33.4622 -7.39213 -80.1061
rradius 33.9811
rwrist 21.3809
rhand -18.7226 3.0616
rfingers 7.12502
rthumb 7.57295 -26.7828
lclavicle 6.4605e-015 8.64713e-015
lhumerus -29.6718 12.7648 82.9451
lradius 24.2266
lwrist -12.8502
lhand -11.5998 25.7679
lfingers 7.12502
lthumb 14.4427 55.2453
rfemur -14.5699 3.51101 17.9326
rtibia 30.3033
rfoot -22.1807 -6.50595
rtoes 10.0603
lfemur -10.1467 -1.64392 -21.6146
ltibia 22.1746
lfoot -15.0221 1.95237
ltoes -8.75965
50
root 0.570013 17.7985 9.77949 -173.881 -2.84461 -179.414
lowerback -0.751238 0.043282 -5.72479
upperback -0.549111 0.0821546 1.85602
thorax -0.156179 0.0568702 5.13712
lowerneck -18.884 0.304315 -8.56071
upperneck 36.1769 -0.36911 2.57888
head 16.0671 -2.00841 2.26102
rclavicle -1.0225e-014 4.96962e-016
rhumerus -33.4518 -7.45846 -80.047
rradius 34.0526
rwrist 21.4472
rhand -18.546 3.00715
rfingers 7.12502
rthumb 7.74335 -26.8311
lclavicle -1.0225e-014 4.96962e-016
lhumerus -29.6352 12.6749 83.0258
lradius 24.2489
lwrist -12.7789
lhand -11.6119 25.8129
lfingers 7.12502
lthumb 14.431 55.2912
rfemur -14.5888 3.47952 17.9781
rtibia 30.2911
rfoot -22.1345 -6.41578
rtoes 10.0601
lfemur -10.1678 -1.61772 -21.5678
ltibia 22.2065
lfoot -15.067 2.00762
ltoes -8.98599
51
root 0.569944 17.7968 9.78289 -173.918 -2.82912 -179.357
lowerback -0.706137 0.0407415 -5.66391
upperback -0.492452 0.0775024 1.86062
thorax -0.122221 0.0520942 5.10723
lowerneck -18.9999 0.281099 -8.57438
upperneck 36.1683 -0.389962 2.63133
head 16.0923 -2.00497 2.28424
rclavicle -2.36057e-016 -8.44835e-015
rhumerus -33.3625 -7.58163 -80.0337
rradius 33.998
rwrist 21.6057
rhand -18.6293 3.09109
rfingers 7.12502
rthumb 7.66299 -26.7501
lclavicle -2.36057e-016 -8.44835e-015
lhumerus -29.5327 12.6988 83.0491
lradius 24.2376
lwrist -12.8295
lhand -11.676 25.9244
lfingers 7.12502
lthumb 14.3693 55.4071
rfemur -14.5577 3.4972 18.0484
rtibia 30.2702
rfoot -22.1184 -6.47124
rtoes 9.57076
lfemur -10.1743 -1.62124 -21.5057
ltibia 22.278
lfoot -15.1293 2.01598
ltoes -9.13003
52
root 0.569351 17.7976 9.78531 -173.948 -2.84167 -179.238
lowerback -0.666462 0.0364426 -5.52759
upperback -0.453418 0.0694129 1.88378
thorax -0.102884 0.0460986 5.0538
lowerneck -19.1137 0.266169 -8.53274
upperneck 36.1987 -0.396134 2.59498
head 16.1359 -2.00549 2.26113
rclavicle 3.3048e-015 1.2921e-014
rhumerus -33.3106 -7.6307 -80.0349
rradius 33.9976
rwrist 21.62
rhand -18.6313 2.99119
rfingers 7.12502
rthumb 7.66104 -26.85
lclavicle 3.3048e-015 1.2921e-014
lhumerus -29.4583 12.6648 83.0726
lradius 24.192
lwrist -12.9106
lhand -11.7514 25.8564
lfingers 7.12502
lthumb 14.2966 55.3442
rfemur -14.528 3.57669 18.1851
rtibia 30.2336
rfoot -22.1071 -6.62452
rtoes 8.94218
lfemur -10.1956 -1.64548 -21.3709
ltibia 22.361
lfoot -15.1702 2.01033
ltoes -8.86077
53
root 0.567775 17.7956 9.78655 -173.984 -2.84304 -179.171
lowerback -0.626645 0.0220678 -5.47565
upperback -0.442212 0.0474082 1.93432
thorax -0.110845 0.0347277 5.07688
lowerneck -19.1486 0.279732 -8.52347
upperneck 36.2434 -0.360129 2.53202
head 16.1646 -2.00308 2.23842
rclavicle -4.4975e-015 -3.67752e-015
rhumerus -33.3677 -7.5866 -80.0032
rradius 34.1066
rwrist 21.5922
rhand -18.6545 2.73518
rfingers 7.12502
rthumb 7.6386 -27.1069
lclavicle -4.4975e-015 -3.67752e-015
lhumerus -29.4585 12.5993 83.1702
lradius 24.2035
lwrist -12.9394
lhand -11.7133 26.0013
lfingers 7.12502
lthumb 14.3333 55.4865
rfemur -14.4788 3.60147 18.2562
rtibia 30.1949
rfoot -22.0611 -6.69216
rtoes 8.52031
lfemur -10.2054 -1.59242 -21.3074
ltibia 22.441
lfoot -15.2269 1.99868
ltoes -8.89008
54
root 0.566243 17.7948 9.78787 -173.984 -2.77443 -179.132
lowerback -0.630357 0.0314062 -5.4521
upperback -0.44036 0.0594032 1.9692
thorax -0.108424 0.0403615 5.09999
lowerneck -19.1404 0.298535 -8.51303
upperneck 36.2308 -0.330436 2.52164
head 16.1538 -1.99013 2.23754
rclavicle 1.2424e-017 -1.54058e-014
rhumerus -33.39 -7.50763 -79.9803
rradius 34.1367
rwrist 21.433
rhand -18.6259 2.55198
rfingers 7.12502
rthumb 7.66628 -27.2891
lclavicle 1.2424e-017 -1.54058e-014
lhumerus -29.4716 12.5503 83.2741
lradius 24.2812
lwrist -12.9079
lhand -11.4085 26.1463
lfingers 7.12502
lthumb 14.627 55.6105
rfemur -14.4916 3.6611 18.2846
rtibia 30.1676
rfoot -21.9998 -6.72868
rtoes 8.34781
lfemur -10.2458 -1.57063 -21.2837
ltibia 22.5033
lfoot -15.2629 2.06198
ltoes -9.01828
55
root 0.563461 17.7969 9.79021 -173.943 -2.72994 -179.013
lowerback -0.69257 0.034026 -5.29841
upperback -0.422794 0.0645397 2.00136
thorax -0.0558007 0.0401675 5.04623
lowerneck -19.1608 0.281317 -8.52404
upperneck 36.1761 -0.338188 2.53054
head 16.132 -1.98651 2.24262
rclavicle -2.07481e-015 9.64106e-015
rhumerus -33.3248 -7.49403 -79.979
rradius 34.1184
rwrist 21.3901
rhand -18.4867 2.26304
rfingers 7.12502
rthumb 7.80056 -27.5731
lclavicle -2.07481e-015 9.64106e-015
lhumerus -29.4344 12.5022 83.3499
lradius 24.3715
lwrist -12.8562
lhand -11.3205 26.2489
lfingers 7.12502
lthumb 14.7117 55.7069
rfemur -14.558 3.81437 18.3922
rtibia 30.1836
rfoot -22.0015 -6.8143
rtoes 8.35106
lfemur -10.3291 -1.61422 -21.1681
ltibia 22.5149
lfoot -15.2467 2.16153
ltoes -9.11075
56
root 0.560304 17.7964 9.79403 -173.903 -2.7716 -179.083
lowerback -0.681424 0.00572929 -5.31849
upperback -0.432603 0.0266873 1.9708
thorax -0.0673551 0.022007 5.02549
lowerneck -19.1426 0.265565 -8.547
upperneck 36.13 -0.375431 2.60466
head 16.1067 -1.98978 2.27232
rclavicle -2.19906e-015 -7.15625e-015
rhumerus -33.3473 -7.40271 -80.0101
rradius 34.1922
rwrist 21.295
rhand -18.3867 2.12577
rfingers 7.12502
rthumb 7.89712 -27.7067
lclavicle -2.19906e-015 -7.15625e-015
lhumerus -29.447 12.3044 83.4464
lradius 24.4726
lwrist -12.5892
lhand -11.5811 26.2189
lfingers 7.12502
lthumb 14.4606 55.6951
rfemur -14.6262 3.83843 18.3024
rtibia 30.2331
rfoot -22.0521 -6.90348
rtoes 8.03708
lfemur -10.3798 -1.65579 -21.2589
ltibia 22.4741
lfoot -15.1869 2.18534
ltoes -9.19387
57
root 0.555484 17.7934 9.7988 -173.862 -2.80472 -179.292
lowerback -0.597178 -0.0244747 -5.47507
upperback -0.495186 -0.017423 1.92357
thorax -0.173724 0.00537639 5.06501
lowerneck -19.1054 0.275024 -8.58033
upperneck 36.1661 -0.366358 2.59804
head 16.1154 -1.99853 2.27583
rclavicle -6.21202e-016 -7.45443e-015
rhumerus -33.4894 -7.33775 -79.9643
rradius 34.2668
rwrist 21.3459
rhand -18.417 2.28288
rfingers 7.12502
rthumb 7.86786 -27.5507
lclavicle -6.21202e-016 -7.45443e-015
lhumerus -29.5293 12.2212 83.5381
lradius 24.5506
lwrist -12.4324
lhand -11.8484 26.1454
lfingers 7.12502
lthumb 14.203 55.6398
rfemur -14.7002 3.83311 18.0427
rtibia 30.2981
rfoot -22.0974 -6.87191
rtoes 7.9866
lfemur -10.4107 -1.65944 -21.5178
ltibia 22.427
lfoot -15.1381 2.17252
ltoes -9.38399
